<svg id="icon_knife" xmlns="http://www.w3.org/2000/svg" width="56" height="56" viewBox="0 0 56 56">
  <rect id="Rectangle_53" data-name="Rectangle 53" width="56" height="56" fill="#fff" opacity="0"/>
  <g id="Group_12" data-name="Group 12" transform="translate(2 6)">
    <g id="Group_11" data-name="Group 11">
      <path id="Path_8" data-name="Path 8" d="M1665.777,952.738a2.8,2.8,0,0,0,3.957,3.956l8.7-8.7-3.957-3.957Z" transform="translate(-1656.753 -912.509)" fill="#fff"/>
      <path id="Path_9" data-name="Path 9" d="M1712.659,933.881l-7.85,7.877-1.311-1.316,7.589-8.14-.735-.738-8.167,7.56-1.313-1.316,7.624-8.105-.793-.8-8.142,7.585-1.313-1.318,7.849-7.877-.784-.788s-7.39,5.814-11.039,8.815a5.086,5.086,0,0,0-1.614,4.477c.246,2.232.516,3.1-.387,4l-7.656,7.68c-9.821-9.859-20.571-20.647-21.677-21.742a1.506,1.506,0,0,0-2.168-.058c-2.037,2.045,4.115,14.259,12.219,24.5,1.69-1.7,3.227-3.238,3.227-3.238l19.683,19.749a2.775,2.775,0,0,0,3.925,0h0a2.8,2.8,0,0,0,0-3.94c-2.083-2.09-6.352-6.377-11.272-11.318l7.648-7.675c.919-.921,1.767-.639,3.992-.378a5.082,5.082,0,0,0,4.551-1.62c2.967-3.706,8.633-11.162,8.633-11.162Z" transform="translate(-1660.378 -926.508)" fill="#fff"/>
    </g>
  </g>
</svg>
