<svg id="logo" xmlns="http://www.w3.org/2000/svg" width="144" height="64" viewBox="0 0 144 64">
  <rect id="Rectangle_46" data-name="Rectangle 46" width="144" height="64" fill="#ff963c" opacity="0"/>
  <g id="Group_138" data-name="Group 138" transform="translate(-603.673 -1070.714)">
    <path id="Path_82" data-name="Path 82" d="M785.838,1098.569h9.477v7.8h3.609V1087.08h-3.609v8.127h-9.477v-8.127H782.2v19.285h3.637Z" transform="translate(-150.301 -0.339)" fill="#ff963c"/>
    <path id="Path_83" data-name="Path 83" d="M1045.991,1171.374a8.343,8.343,0,0,0,5.841-2.2l-2.149-2.121a5.6,5.6,0,0,1-3.636,1.267c-2.369,0-3.829-1.212-4.05-2.893H1052.6c.523-5.593-2.314-8.4-6.86-8.4a6.8,6.8,0,0,0-7.218,7.108C1038.525,1168.481,1041.308,1171.374,1045.991,1171.374Zm-.138-11.378c1.929,0,3.306.882,3.526,2.645h-7.328A3.659,3.659,0,0,1,1045.853,1160Z" transform="translate(-388.625 -65.016)" fill="#ff963c"/>
    <path id="Path_84" data-name="Path 84" d="M1262.841,1172.442c1.515-.027,3.637-.8,4.408-2.4l.165,1.984h3.168v-13.582h-3.223l-.11,1.873a4.986,4.986,0,0,0-4.325-2.2c-3.967-.028-7.081,2.424-7.081,7.108C1255.843,1169.99,1258.819,1172.47,1262.841,1172.442Zm.386-11.323c5.29,0,5.29,8.237,0,8.237a4.12,4.12,0,0,1,0-8.237Z" transform="translate(-590.272 -66.03)" fill="#ff963c"/>
    <rect id="Rectangle_45" data-name="Rectangle 45" width="3.334" height="19.258" transform="translate(682.705 1086.742)" fill="#ff963c"/>
    <path id="Path_85" data-name="Path 85" d="M1729.5,1099.056a3.482,3.482,0,0,1,3.361-3.719c1.791,0,3.086,1.047,3.086,3.526V1106h3.361v-7.163c0-3.995-1.708-6.612-5.565-6.612a5.015,5.015,0,0,0-4.243,2.039v-7.549h-3.361V1106h3.361Z" transform="translate(-1027.209)" fill="#ff963c"/>
    <path id="Path_86" data-name="Path 86" d="M1567.193,1130.929c0,3.389,1.928,5.069,4.876,4.959a7.509,7.509,0,0,0,2.783-.579l-.937-2.865a3.839,3.839,0,0,1-1.625.413,1.687,1.687,0,0,1-1.763-1.929v-5.868h3.774v-2.893h-3.747v-3.312h-3.361v3.312h-2.535v2.893h2.535Z" transform="translate(-876.678 -29.724)" fill="#ff963c"/>
    <path id="Path_87" data-name="Path 87" d="M725.122,1158.116l-3.678,8.263-3.662-8.263h-3.549l5.433,12.257-7.632,17.146-13.359-11.34-79,.007v3.137h77.775l15.758,13.421,15.467-34.628Z" transform="translate(0 -66.03)" fill="#ff963c"/>
  </g>
</svg>
