<svg xmlns="http://www.w3.org/2000/svg" width="867" height="202" viewBox="0 0 867 202">
  <g id="Group_142" data-name="Group 142" transform="translate(-206 -518)">
    <g id="Group_130" data-name="Group 130" transform="translate(-8 -15)">
      <g id="Group_40" data-name="Group 40" transform="translate(164 363)">
        <text id="_1" data-name="1" transform="translate(596 369)" fill="#fff" font-size="12" font-family="SegoeUI, Segoe UI"><tspan x="-3.234" y="0">1</tspan></text>
        <text id="月" transform="translate(605 368)" fill="#fff" font-size="8" font-family="NotoSansCJKjp-Regular, Noto Sans CJK JP"><tspan x="-4" y="0">月</tspan></text>
      </g>
      <g id="Group_44" data-name="Group 44" transform="translate(472 363)">
        <text id="_5" data-name="5" transform="translate(596 369)" fill="#fff" font-size="12" font-family="SegoeUI, Segoe UI"><tspan x="-3.234" y="0">5</tspan></text>
        <text id="月-2" data-name="月" transform="translate(605 368)" fill="#fff" font-size="8" font-family="NotoSansCJKjp-Regular, Noto Sans CJK JP"><tspan x="-4" y="0">月</tspan></text>
      </g>
      <g id="Group_41" data-name="Group 41" transform="translate(241 363)">
        <text id="_2" data-name="2" transform="translate(596 369)" fill="#fff" font-size="12" font-family="SegoeUI, Segoe UI"><tspan x="-3.234" y="0">2</tspan></text>
        <text id="月-3" data-name="月" transform="translate(605 368)" fill="#fff" font-size="8" font-family="NotoSansCJKjp-Regular, Noto Sans CJK JP"><tspan x="-4" y="0">月</tspan></text>
      </g>
      <g id="Group_45" data-name="Group 45" transform="translate(-378 363)">
        <text id="_6" data-name="6" transform="translate(596 369)" fill="#fff" font-size="12" font-family="SegoeUI, Segoe UI"><tspan x="-3.234" y="0">6</tspan></text>
        <text id="月-4" data-name="月" transform="translate(605 368)" fill="#fff" font-size="8" font-family="NotoSansCJKjp-Regular, Noto Sans CJK JP"><tspan x="-4" y="0">月</tspan></text>
      </g>
      <g id="Group_48" data-name="Group 48" transform="translate(-147 363)">
        <text id="_9" data-name="9" transform="translate(596 369)" fill="#fff" font-size="12" font-family="SegoeUI, Segoe UI"><tspan x="-3.234" y="0">9</tspan></text>
        <text id="月-5" data-name="月" transform="translate(605 368)" fill="#fff" font-size="8" font-family="NotoSansCJKjp-Regular, Noto Sans CJK JP"><tspan x="-4" y="0">月</tspan></text>
      </g>
      <g id="Group_42" data-name="Group 42" transform="translate(318 363)">
        <text id="_3" data-name="3" transform="translate(596 369)" fill="#fff" font-size="12" font-family="SegoeUI, Segoe UI"><tspan x="-3.234" y="0">3</tspan></text>
        <text id="月-6" data-name="月" transform="translate(605 368)" fill="#fff" font-size="8" font-family="NotoSansCJKjp-Regular, Noto Sans CJK JP"><tspan x="-4" y="0">月</tspan></text>
      </g>
      <g id="Group_46" data-name="Group 46" transform="translate(-301 363)">
        <text id="_7" data-name="7" transform="translate(596 369)" fill="#fff" font-size="12" font-family="SegoeUI, Segoe UI"><tspan x="-3.234" y="0">7</tspan></text>
        <text id="月-7" data-name="月" transform="translate(605 368)" fill="#fff" font-size="8" font-family="NotoSansCJKjp-Regular, Noto Sans CJK JP"><tspan x="-4" y="0">月</tspan></text>
      </g>
      <g id="Group_49" data-name="Group 49" transform="translate(-68 363)">
        <text id="_10" data-name="10" transform="translate(596 369)" fill="#fff" font-size="12" font-family="SegoeUI, Segoe UI"><tspan x="-6.469" y="0">10</tspan></text>
        <text id="月-8" data-name="月" transform="translate(607 368)" fill="#fff" font-size="8" font-family="NotoSansCJKjp-Regular, Noto Sans CJK JP"><tspan x="-4" y="0">月</tspan></text>
      </g>
      <g id="Group_43" data-name="Group 43" transform="translate(395 363)">
        <text id="_4" data-name="4" transform="translate(596 369)" fill="#fff" font-size="12" font-family="SegoeUI, Segoe UI"><tspan x="-3.234" y="0">4</tspan></text>
        <text id="月-9" data-name="月" transform="translate(605 368)" fill="#fff" font-size="8" font-family="NotoSansCJKjp-Regular, Noto Sans CJK JP"><tspan x="-4" y="0">月</tspan></text>
      </g>
      <g id="Group_47" data-name="Group 47" transform="translate(-224 363)">
        <text id="_8" data-name="8" transform="translate(596 369)" fill="#fff" font-size="12" font-family="SegoeUI, Segoe UI"><tspan x="-3.234" y="0">8</tspan></text>
        <text id="月-10" data-name="月" transform="translate(605 368)" fill="#fff" font-size="8" font-family="NotoSansCJKjp-Regular, Noto Sans CJK JP"><tspan x="-4" y="0">月</tspan></text>
      </g>
      <g id="Group_50" data-name="Group 50" transform="translate(10 363)">
        <text id="_11" data-name="11" transform="translate(596 369)" fill="#fff" font-size="12" font-family="SegoeUI, Segoe UI"><tspan x="-6.469" y="0">11</tspan></text>
        <text id="月-11" data-name="月" transform="translate(606 368)" fill="#fff" font-size="8" font-family="NotoSansCJKjp-Regular, Noto Sans CJK JP"><tspan x="-4" y="0">月</tspan></text>
      </g>
      <g id="Group_115" data-name="Group 115" transform="translate(88 363)">
        <text id="_12" data-name="12" transform="translate(596 369)" fill="#fff" font-size="12" font-family="SegoeUI, Segoe UI"><tspan x="-6.469" y="0">12</tspan></text>
        <text id="月-12" data-name="月" transform="translate(607 368)" fill="#fff" font-size="8" font-family="NotoSansCJKjp-Regular, Noto Sans CJK JP"><tspan x="-4" y="0">月</tspan></text>
      </g>
    </g>
    <g id="Group_131" data-name="Group 131" transform="translate(-0.5 26)">
      <path id="線_7" data-name="線 7" d="M0,0V185" transform="translate(215.5 492)" fill="none" stroke="#777" stroke-width="1"/>
      <line id="線_7-2" data-name="線 7" y2="185" transform="translate(292.5 492)" fill="none" stroke="#777" stroke-width="1"/>
      <line id="線_7-3" data-name="線 7" y2="185" transform="translate(369.5 492)" fill="none" stroke="#777" stroke-width="1"/>
      <line id="線_7-4" data-name="線 7" y2="185" transform="translate(447.5 492)" fill="none" stroke="#777" stroke-width="1"/>
      <line id="線_7-5" data-name="線 7" y2="185" transform="translate(524.5 492)" fill="none" stroke="#777" stroke-width="1"/>
      <line id="線_7-6" data-name="線 7" y2="185" transform="translate(601.5 492)" fill="none" stroke="#777" stroke-width="1"/>
      <line id="線_7-7" data-name="線 7" y2="185" transform="translate(679.5 492)" fill="none" stroke="#777" stroke-width="1"/>
      <line id="線_7-8" data-name="線 7" y2="185" transform="translate(756.5 492)" fill="none" stroke="#777" stroke-width="1"/>
      <line id="線_7-9" data-name="線 7" y2="185" transform="translate(833.5 492)" fill="none" stroke="#777" stroke-width="1"/>
      <line id="線_7-10" data-name="線 7" y2="185" transform="translate(911.5 492)" fill="none" stroke="#777" stroke-width="1"/>
      <line id="線_7-11" data-name="線 7" y2="185" transform="translate(988.5 492)" fill="none" stroke="#777" stroke-width="1"/>
      <line id="線_7-12" data-name="線 7" y2="185" transform="translate(1066.5 492)" fill="none" stroke="#777" stroke-width="1"/>
    </g>
    <g id="Group_114" data-name="Group 114" transform="translate(167.733 492)">
      <path id="Path_69" data-name="Path 69" d="M47.5,51.329l77.407,12.508,77.407,28.056,77.407,5.22,77.407,27.4,77.407,2.61,77.407,17.617,77.407,3.915,77.407,9.135,77.407,23.489,77.407,6.77,77.3,6.932" fill="none" stroke="#8fe9d0" stroke-miterlimit="10" stroke-width="3"/>
      <circle id="Ellipse_42" data-name="Ellipse 42" cx="4" cy="4" r="4" transform="translate(121 60)" fill="#8fe9d0"/>
      <circle id="Ellipse_43" data-name="Ellipse 43" cx="4" cy="4" r="4" transform="translate(43.5 47.5)" fill="#8fe9d0"/>
      <circle id="Ellipse_44" data-name="Ellipse 44" cx="4" cy="4" r="4" transform="translate(198 87.312)" fill="#8fe9d0"/>
      <circle id="Ellipse_45" data-name="Ellipse 45" cx="4" cy="4" r="4" transform="translate(276.035 93.536)" fill="#8fe9d0"/>
      <circle id="Ellipse_46" data-name="Ellipse 46" cx="4" cy="4" r="4" transform="translate(352.461 119.961)" fill="#8fe9d0"/>
      <circle id="Ellipse_47" data-name="Ellipse 47" cx="4" cy="4" r="4" transform="translate(429.376 123.573)" fill="#8fe9d0"/>
      <circle id="Ellipse_48" data-name="Ellipse 48" cx="4" cy="4" r="4" transform="translate(507.314 140.551)" fill="#8fe9d0"/>
      <circle id="Ellipse_49" data-name="Ellipse 49" cx="4" cy="4" r="4" transform="translate(584.74 144.551)" fill="#8fe9d0"/>
      <circle id="Ellipse_50" data-name="Ellipse 50" cx="4" cy="4" r="4" transform="translate(661.655 154.264)" fill="#8fe9d0"/>
      <circle id="Ellipse_51" data-name="Ellipse 51" cx="4" cy="4" r="4" transform="translate(739.267 177)" fill="#8fe9d0"/>
      <circle id="Ellipse_52" data-name="Ellipse 52" cx="4" cy="4" r="4" transform="translate(894.267 191)" fill="#8fe9d0"/>
      <circle id="Ellipse_53" data-name="Ellipse 53" cx="4" cy="4" r="4" transform="translate(817.267 184)" fill="#8fe9d0"/>
    </g>
    <g id="Group_113" data-name="Group 113" transform="translate(167.733 492)">
      <path id="Path_68" data-name="Path 68" d="M47.5,51.329l77.3,8.435,77.3,70.589,77.464-49.3,76.891,21.293,77.6,15.8,77.62-20.313,77.022,33.291,77.094,10.228L742.22,157.41l78.8,18.028,76.751,10.1" fill="none" stroke="#ffcc21" stroke-miterlimit="10" stroke-width="3"/>
      <circle id="Ellipse_30" data-name="Ellipse 30" cx="4" cy="4" r="4" transform="translate(121 57)" fill="#ffcc21"/>
      <circle id="Ellipse_31" data-name="Ellipse 31" cx="4" cy="4" r="4" transform="translate(43.5 47.5)" fill="#ffcc21"/>
      <circle id="Ellipse_32" data-name="Ellipse 32" cx="4" cy="4" r="4" transform="translate(198 126)" fill="#ffcc21"/>
      <circle id="Ellipse_40" data-name="Ellipse 40" cx="4" cy="4" r="4" transform="translate(816.267 171)" fill="#ffcc21"/>
      <circle id="Ellipse_41" data-name="Ellipse 41" cx="4" cy="4" r="4" transform="translate(894.267 182)" fill="#ffcc21"/>
      <circle id="Ellipse_54" data-name="Ellipse 54" cx="4" cy="4" r="4" transform="translate(276.068 78)" fill="#ffcc21"/>
      <circle id="Ellipse_55" data-name="Ellipse 55" cx="4" cy="4" r="4" transform="translate(351.857 98)" fill="#ffcc21"/>
      <circle id="Ellipse_56" data-name="Ellipse 56" cx="4" cy="4" r="4" transform="translate(429.132 114)" fill="#ffcc21"/>
      <circle id="Ellipse_57" data-name="Ellipse 57" cx="4" cy="4" r="4" transform="translate(585.168 127)" fill="#ffcc21"/>
      <circle id="Ellipse_58" data-name="Ellipse 58" cx="4" cy="4" r="4" transform="translate(660.956 137)" fill="#ffcc21"/>
      <circle id="Ellipse_59" data-name="Ellipse 59" cx="4" cy="4" r="4" transform="translate(739.267 153)" fill="#ffcc21"/>
      <circle id="Ellipse_60" data-name="Ellipse 60" cx="4" cy="4" r="4" transform="translate(507.893 94)" fill="#ffcc21"/>
    </g>
  </g>
</svg>
