<svg xmlns="http://www.w3.org/2000/svg" width="590" height="282" viewBox="0 0 590 282">
  <g id="main_graph" transform="translate(1888 175)">
    <g id="Group_40" data-name="Group 40" transform="translate(-2114 -265)">
      <text id="_1" data-name="1" transform="translate(596 369)" fill="#fff" font-size="12" font-family="SegoeUI, Segoe UI"><tspan x="-3.234" y="0">1</tspan></text>
      <text id="月" transform="translate(605 368)" fill="#fff" font-size="8" font-family="NotoSansCJKjp-Regular, Noto Sans CJK JP"><tspan x="-4" y="0">月</tspan></text>
    </g>
    <g id="Group_44" data-name="Group 44" transform="translate(-1907 -265)">
      <text id="_5" data-name="5" transform="translate(596 369)" fill="#fff" font-size="12" font-family="SegoeUI, Segoe UI"><tspan x="-3.234" y="0">5</tspan></text>
      <text id="月-2" data-name="月" transform="translate(605 368)" fill="#fff" font-size="8" font-family="NotoSansCJKjp-Regular, Noto Sans CJK JP"><tspan x="-4" y="0">月</tspan></text>
    </g>
    <g id="Group_41" data-name="Group 41" transform="translate(-2062 -265)">
      <text id="_2" data-name="2" transform="translate(596 369)" fill="#fff" font-size="12" font-family="SegoeUI, Segoe UI"><tspan x="-3.234" y="0">2</tspan></text>
      <text id="月-3" data-name="月" transform="translate(605 368)" fill="#fff" font-size="8" font-family="NotoSansCJKjp-Regular, Noto Sans CJK JP"><tspan x="-4" y="0">月</tspan></text>
    </g>
    <g id="Group_45" data-name="Group 45" transform="translate(-2480 -265)">
      <text id="_6" data-name="6" transform="translate(596 369)" fill="#fff" font-size="12" font-family="SegoeUI, Segoe UI"><tspan x="-3.234" y="0">6</tspan></text>
      <text id="月-4" data-name="月" transform="translate(605 368)" fill="#fff" font-size="8" font-family="NotoSansCJKjp-Regular, Noto Sans CJK JP"><tspan x="-4" y="0">月</tspan></text>
    </g>
    <g id="Group_48" data-name="Group 48" transform="translate(-2325 -265)">
      <text id="_9" data-name="9" transform="translate(596 369)" fill="#fff" font-size="12" font-family="SegoeUI, Segoe UI"><tspan x="-3.234" y="0">9</tspan></text>
      <text id="月-5" data-name="月" transform="translate(605 368)" fill="#fff" font-size="8" font-family="NotoSansCJKjp-Regular, Noto Sans CJK JP"><tspan x="-4" y="0">月</tspan></text>
    </g>
    <g id="Group_42" data-name="Group 42" transform="translate(-2010 -265)">
      <text id="_3" data-name="3" transform="translate(596 369)" fill="#fff" font-size="12" font-family="SegoeUI, Segoe UI"><tspan x="-3.234" y="0">3</tspan></text>
      <text id="月-6" data-name="月" transform="translate(605 368)" fill="#fff" font-size="8" font-family="NotoSansCJKjp-Regular, Noto Sans CJK JP"><tspan x="-4" y="0">月</tspan></text>
    </g>
    <g id="Group_46" data-name="Group 46" transform="translate(-2428 -265)">
      <text id="_7" data-name="7" transform="translate(596 369)" fill="#fff" font-size="12" font-family="SegoeUI, Segoe UI"><tspan x="-3.234" y="0">7</tspan></text>
      <text id="月-7" data-name="月" transform="translate(605 368)" fill="#fff" font-size="8" font-family="NotoSansCJKjp-Regular, Noto Sans CJK JP"><tspan x="-4" y="0">月</tspan></text>
    </g>
    <g id="Group_49" data-name="Group 49" transform="translate(-2271 -265)">
      <text id="_10" data-name="10" transform="translate(594 369)" fill="#fff" font-size="12" font-family="SegoeUI, Segoe UI"><tspan x="-6.469" y="0">10</tspan></text>
      <text id="月-8" data-name="月" transform="translate(605 368)" fill="#fff" font-size="8" font-family="NotoSansCJKjp-Regular, Noto Sans CJK JP"><tspan x="-4" y="0">月</tspan></text>
    </g>
    <g id="Group_43" data-name="Group 43" transform="translate(-1959 -265)">
      <text id="_4" data-name="4" transform="translate(596 369)" fill="#fff" font-size="12" font-family="SegoeUI, Segoe UI"><tspan x="-3.234" y="0">4</tspan></text>
      <text id="月-9" data-name="月" transform="translate(605 368)" fill="#fff" font-size="8" font-family="NotoSansCJKjp-Regular, Noto Sans CJK JP"><tspan x="-4" y="0">月</tspan></text>
    </g>
    <g id="Group_47" data-name="Group 47" transform="translate(-2377 -265)">
      <text id="_8" data-name="8" transform="translate(596 369)" fill="#fff" font-size="12" font-family="SegoeUI, Segoe UI"><tspan x="-3.234" y="0">8</tspan></text>
      <text id="月-10" data-name="月" transform="translate(605 368)" fill="#fff" font-size="8" font-family="NotoSansCJKjp-Regular, Noto Sans CJK JP"><tspan x="-4" y="0">月</tspan></text>
    </g>
    <g id="Group_50" data-name="Group 50" transform="translate(-2218 -265)">
      <text id="_11" data-name="11" transform="translate(594 369)" fill="#fff" font-size="12" font-family="SegoeUI, Segoe UI"><tspan x="-6.469" y="0">11</tspan></text>
      <text id="月-11" data-name="月" transform="translate(605 368)" fill="#fff" font-size="8" font-family="NotoSansCJKjp-Regular, Noto Sans CJK JP"><tspan x="-4" y="0">月</tspan></text>
    </g>
    <g id="Group_115" data-name="Group 115" transform="translate(-2165 -265)">
      <text id="_12" data-name="12" transform="translate(594 369)" fill="#fff" font-size="12" font-family="SegoeUI, Segoe UI"><tspan x="-6.469" y="0">12</tspan></text>
      <text id="月-12" data-name="月" transform="translate(605 368)" fill="#fff" font-size="8" font-family="NotoSansCJKjp-Regular, Noto Sans CJK JP"><tspan x="-4" y="0">月</tspan></text>
    </g>
    <g id="Group_112" data-name="Group 112" transform="translate(-1926.43 -207.215)">
      <line id="線_7" data-name="線 7" y2="268" transform="translate(47.43 32.215)" fill="none" stroke="#777" stroke-width="1"/>
      <line id="線_7-2" data-name="線 7" y2="268" transform="translate(99.43 32.215)" fill="none" stroke="#777" stroke-width="1"/>
      <line id="線_7-3" data-name="線 7" y2="268" transform="translate(151.43 32.215)" fill="none" stroke="#777" stroke-width="1"/>
      <line id="線_7-4" data-name="線 7" y2="268" transform="translate(203.43 32.215)" fill="none" stroke="#777" stroke-width="1"/>
      <line id="線_7-5" data-name="線 7" y2="268" transform="translate(255.43 32.215)" fill="none" stroke="#777" stroke-width="1"/>
      <line id="線_7-6" data-name="線 7" y2="268" transform="translate(307.43 32.215)" fill="none" stroke="#777" stroke-width="1"/>
      <line id="線_7-7" data-name="線 7" y2="268" transform="translate(359.43 32.215)" fill="none" stroke="#777" stroke-width="1"/>
      <line id="線_7-8" data-name="線 7" y2="268" transform="translate(411.43 32.215)" fill="none" stroke="#777" stroke-width="1"/>
      <line id="線_7-9" data-name="線 7" y2="268" transform="translate(463.43 32.215)" fill="none" stroke="#777" stroke-width="1"/>
      <line id="線_7-10" data-name="線 7" y2="268" transform="translate(515.43 32.215)" fill="none" stroke="#777" stroke-width="1"/>
      <line id="線_7-11" data-name="線 7" y2="268" transform="translate(567.43 32.215)" fill="none" stroke="#777" stroke-width="1"/>
      <line id="線_7-12" data-name="線 7" y2="268" transform="translate(619.43 32.215)" fill="none" stroke="#777" stroke-width="1"/>
    </g>
    <g id="Group_113" data-name="Group 113" transform="translate(-1926.5 -208)">
      <path id="Path_68" data-name="Path 68" d="M47.5,51.329l52,8.435,52,70.589,52-27.075,52,14.872,52,29.96,52-29.96,52,38.349,52,21,52,8.371,52,11.755,52-12.084" fill="none" stroke="#ffcc21" stroke-miterlimit="10" stroke-width="3"/>
      <circle id="Ellipse_30" data-name="Ellipse 30" cx="4" cy="4" r="4" transform="translate(96 56)" fill="#ffcc21"/>
      <circle id="Ellipse_31" data-name="Ellipse 31" cx="4" cy="4" r="4" transform="translate(43.5 47.5)" fill="#ffcc21"/>
      <circle id="Ellipse_32" data-name="Ellipse 32" cx="4" cy="4" r="4" transform="translate(148 127)" fill="#ffcc21"/>
      <circle id="Ellipse_33" data-name="Ellipse 33" cx="4" cy="4" r="4" transform="translate(200 100)" fill="#ffcc21"/>
      <circle id="Ellipse_34" data-name="Ellipse 34" cx="4" cy="4" r="4" transform="translate(303 144)" fill="#ffcc21"/>
      <circle id="Ellipse_35" data-name="Ellipse 35" cx="4" cy="4" r="4" transform="translate(251 114)" fill="#ffcc21"/>
      <circle id="Ellipse_36" data-name="Ellipse 36" cx="4" cy="4" r="4" transform="translate(356 114)" fill="#ffcc21"/>
      <circle id="Ellipse_37" data-name="Ellipse 37" cx="4" cy="4" r="4" transform="translate(408 153)" fill="#ffcc21"/>
      <circle id="Ellipse_38" data-name="Ellipse 38" cx="4" cy="4" r="4" transform="translate(459 173)" fill="#ffcc21"/>
      <circle id="Ellipse_39" data-name="Ellipse 39" cx="4" cy="4" r="4" transform="translate(511 182)" fill="#ffcc21"/>
      <circle id="Ellipse_40" data-name="Ellipse 40" cx="4" cy="4" r="4" transform="translate(563 194)" fill="#ffcc21"/>
      <circle id="Ellipse_41" data-name="Ellipse 41" cx="4" cy="4" r="4" transform="translate(616 182)" fill="#ffcc21"/>
    </g>
    <g id="Group_114" data-name="Group 114" transform="translate(-1926.5 -208)">
      <path id="Path_69" data-name="Path 69" d="M47.5,51.329,99.5,70.5l52,43,52,8,52,42,52,4,52,27,52,6,52,14,52,36,52,10.376L619.43,271.5" fill="none" stroke="#8fe9d0" stroke-miterlimit="10" stroke-width="3"/>
      <circle id="Ellipse_42" data-name="Ellipse 42" cx="4" cy="4" r="4" transform="translate(95 67)" fill="#8fe9d0"/>
      <circle id="Ellipse_43" data-name="Ellipse 43" cx="4" cy="4" r="4" transform="translate(43.5 47.5)" fill="#8fe9d0"/>
      <circle id="Ellipse_44" data-name="Ellipse 44" cx="4" cy="4" r="4" transform="translate(148 110)" fill="#8fe9d0"/>
      <circle id="Ellipse_45" data-name="Ellipse 45" cx="4" cy="4" r="4" transform="translate(199 118)" fill="#8fe9d0"/>
      <circle id="Ellipse_46" data-name="Ellipse 46" cx="4" cy="4" r="4" transform="translate(251 160)" fill="#8fe9d0"/>
      <circle id="Ellipse_47" data-name="Ellipse 47" cx="4" cy="4" r="4" transform="translate(304 164)" fill="#8fe9d0"/>
      <circle id="Ellipse_48" data-name="Ellipse 48" cx="4" cy="4" r="4" transform="translate(355 190)" fill="#8fe9d0"/>
      <circle id="Ellipse_49" data-name="Ellipse 49" cx="4" cy="4" r="4" transform="translate(407 197)" fill="#8fe9d0"/>
      <circle id="Ellipse_50" data-name="Ellipse 50" cx="4" cy="4" r="4" transform="translate(460 211)" fill="#8fe9d0"/>
      <circle id="Ellipse_51" data-name="Ellipse 51" cx="4" cy="4" r="4" transform="translate(512 246)" fill="#8fe9d0"/>
      <circle id="Ellipse_52" data-name="Ellipse 52" cx="4" cy="4" r="4" transform="translate(615 268)" fill="#8fe9d0"/>
      <circle id="Ellipse_53" data-name="Ellipse 53" cx="4" cy="4" r="4" transform="translate(563 257)" fill="#8fe9d0"/>
    </g>
  </g>
</svg>
