<svg xmlns="http://www.w3.org/2000/svg" width="669" height="253" viewBox="0 0 669 253">
  <g id="Group_134" data-name="Group 134" transform="translate(-619.673 -1086.714)">
    <path id="Path_82" data-name="Path 82" d="M803.765,1155.2h56.195v46.23h21.4V1087.08h-21.4v48.19H803.765v-48.19H782.2v114.35h21.563Z" transform="translate(-90.023 -0.203)" fill="#ff963c"/>
    <path id="Path_83" data-name="Path 83" d="M1082.795,1242.13c12.252,0,26.137-4.248,34.631-13.069l-12.742-12.579c-4.574,4.738-14.212,7.514-21.563,7.514-14.048,0-22.707-7.188-24.013-17.152H1122c3.1-33.161-13.722-49.824-40.676-49.824-26.137,0-42.8,17.643-42.8,42.146C1038.525,1224.977,1055.024,1242.13,1082.795,1242.13Zm-.817-67.467c11.435,0,19.6,5.228,20.91,15.682h-43.453C1062.375,1179.89,1071.2,1174.663,1081.978,1174.663Z" transform="translate(-232.394 -38.942)" fill="#ff963c"/>
    <path id="Path_84" data-name="Path 84" d="M1297.336,1243.063c8.985-.163,21.563-4.738,26.137-14.212l.98,11.762h18.786v-80.535h-19.113l-.653,11.109c-4.574-8-14.865-13.069-25.647-13.069-23.523-.163-41.983,14.375-41.983,42.146C1255.843,1228.524,1273.486,1243.226,1297.336,1243.063Zm2.287-67.14c31.365,0,31.365,48.843,0,48.843-13.232,0-23.849-9.147-23.849-24.5S1286.391,1175.923,1299.622,1175.923Z" transform="translate(-352.973 -39.549)" fill="#ff963c"/>
    <rect id="Rectangle_45" data-name="Rectangle 45" width="19.766" height="114.186" transform="translate(1006.954 1086.877)" fill="#ff963c"/>
    <path id="Path_85" data-name="Path 85" d="M1746.069,1159.9c0-12.089,8.167-22.053,19.929-22.053,10.618,0,18.3,6.208,18.3,20.91v42.31h19.929v-42.473c0-23.687-10.128-39.206-33-39.206-9.148,0-17.969,2.777-25.157,12.088v-44.76h-19.93v114.35h19.93Z" transform="translate(-614.102)" fill="#ff963c"/>
    <path id="Path_86" data-name="Path 86" d="M1579.687,1190.442c0,20.093,11.435,30.058,28.914,29.4a44.515,44.515,0,0,0,16.5-3.431l-5.554-16.989a22.77,22.77,0,0,1-9.638,2.45c-6.208,0-10.455-3.757-10.455-11.435v-34.795h22.38v-17.153h-22.216v-19.639h-19.93v19.639h-15.029v17.153h15.029Z" transform="translate(-524.276 -17.803)" fill="#ff963c"/>
    <path id="Path_87" data-name="Path 87" d="M1266.879,1158.116l-22.576,52.769-22.479-52.769h-21.78l33.346,78.278-46.845,109.5-81.993-72.424-484.878.042v20.034l477.353.009,96.72,85.71,94.927-221.147Z" transform="translate(0 -39.549)" fill="#ff963c"/>
  </g>
</svg>
