<svg id="icon_challenge" xmlns="http://www.w3.org/2000/svg" width="32" height="32" viewBox="0 0 32 32">
  <rect id="Rectangle_48" data-name="Rectangle 48" width="32" height="32" fill="#ff963c" opacity="0"/>
  <g id="Group_25" data-name="Group 25" transform="translate(4.5 1)">
    <path id="Path_31" data-name="Path 31" d="M1781.35,990.169l-.812.554a6.956,6.956,0,0,0,1.941,1.9l.538-.824A5.987,5.987,0,0,1,1781.35,990.169Z" transform="translate(-1774.598 -976.701)" fill="#ff963c"/>
    <path id="Path_32" data-name="Path 32" d="M1784.425,982.492a5.982,5.982,0,0,1,1.224-.127,5.921,5.921,0,0,1,1.093.1l.181-.966a6.93,6.93,0,0,0-2.7.028l-.019,0,.2.962Z" transform="translate(-1774.139 -977.777)" fill="#ff963c"/>
    <path id="Path_33" data-name="Path 33" d="M1782.924,983.227l-.556-.811a6.966,6.966,0,0,0-1.9,1.942l.824.538A5.975,5.975,0,0,1,1782.924,983.227Z" transform="translate(-1774.606 -977.76)" fill="#ff963c"/>
    <path id="Path_34" data-name="Path 34" d="M1780.49,987.487a5.971,5.971,0,0,1,.1-1.1l-.966-.181a6.869,6.869,0,0,0-.12,1.279,6.943,6.943,0,0,0,.148,1.425l0,.012.963-.2,0-.01A5.991,5.991,0,0,1,1780.49,987.487Z" transform="translate(-1774.716 -977.245)" fill="#ff963c"/>
    <path id="Path_35" data-name="Path 35" d="M1786.839,992.278a5.983,5.983,0,0,1-1.224.127,5.92,5.92,0,0,1-1.1-.1l-.182.966a6.957,6.957,0,0,0,1.286.12,7.029,7.029,0,0,0,1.424-.147h.006l-.2-.963Z" transform="translate(-1774.124 -976.387)" fill="#ff963c"/>
    <path id="Path_36" data-name="Path 36" d="M1791.366,986.1l0-.024-.963.2,0,.021a5.935,5.935,0,0,1,.022,2.333l.966.184a6.968,6.968,0,0,0-.026-2.718Z" transform="translate(-1773.305 -977.263)" fill="#ff963c"/>
    <path id="Path_37" data-name="Path 37" d="M1788.29,991.754l.554.812a6.967,6.967,0,0,0,1.9-1.94l-.823-.539A6,6,0,0,1,1788.29,991.754Z" transform="translate(-1773.617 -976.712)" fill="#ff963c"/>
    <path id="Path_38" data-name="Path 38" d="M1789.871,984.795l.811-.556a6.97,6.97,0,0,0-1.944-1.9l-.537.824A5.976,5.976,0,0,1,1789.871,984.795Z" transform="translate(-1773.629 -977.769)" fill="#ff963c"/>
    <path id="Path_39" data-name="Path 39" d="M1789.306,986.689l-2.331-.339-1.042-2.111-1.042,2.111-2.331.339,1.686,1.644-.4,2.321,2.084-1.1,2.084,1.1-.4-2.321Z" transform="translate(-1774.434 -977.549)" fill="#ff963c"/>
    <path id="Path_40" data-name="Path 40" d="M1796.669,988.892a10.8,10.8,0,0,0-2.961-7.477,10.084,10.084,0,0,0-3.518-2.392,9.729,9.729,0,0,0-7.3.012,10.083,10.083,0,0,0-3.49,2.38,10.917,10.917,0,0,0,0,14.951,9.8,9.8,0,0,0,14.3,0A10.8,10.8,0,0,0,1796.669,988.892Zm-10.112,8.6a8.025,8.025,0,0,1-5.821-2.52,8.886,8.886,0,0,1,0-12.17,8.171,8.171,0,0,1,3.539-2.187,7.984,7.984,0,0,1,2.282-.333,7.826,7.826,0,0,1,2.25.326,8.153,8.153,0,0,1,3.57,2.194,8.886,8.886,0,0,1,0,12.17A8.023,8.023,0,0,1,1786.557,997.5Z" transform="translate(-1775.056 -978.319)" fill="#ff963c"/>
    <path id="Path_41" data-name="Path 41" d="M1779.5,995.557c-.153-.124-.307-.246-.455-.378v0l-.012-.01-3.664,7.847-.1.281.139.22a.525.525,0,0,0,.444.244h.086l3.5-1.089,1.385,3.314a.532.532,0,0,0,.487.325.526.526,0,0,0,.477-.306l2.834-6.068.837-1.783h0l.006-.014A12.331,12.331,0,0,1,1779.5,995.557Z" transform="translate(-1775.265 -976.315)" fill="#ff963c"/>
    <path id="Path_42" data-name="Path 42" d="M1794.175,996.953l-.823-1.769,0,0-.006-.013a12.338,12.338,0,0,1-5.932,2.878c-.158.028-.314.06-.474.081v0l-.014,0,3.673,7.87a.524.524,0,0,0,.477.306.532.532,0,0,0,.487-.325l1.385-3.314,3.434,1.065.081.024h.072a.526.526,0,0,0,.444-.244l.144-.267Z" transform="translate(-1774.121 -976.315)" fill="#ff963c"/>
  </g>
</svg>
